<?xml version="1.0" encoding="utf-8"?>
<!-- Generator: Adobe Illustrator 16.0.4, SVG Export Plug-In . SVG Version: 6.00 Build 0)  -->
<!DOCTYPE svg PUBLIC "-//W3C//DTD SVG 1.1//EN" "http://www.w3.org/Graphics/SVG/1.1/DTD/svg11.dtd">
<svg version="1.1" id="Layer_1" xmlns="http://www.w3.org/2000/svg" xmlns:xlink="http://www.w3.org/1999/xlink" x="0px" y="0px"
	 width="228px" height="228px" viewBox="0 0 228 228" enable-background="new 0 0 228 228" xml:space="preserve">
<g>
	<path fill="#FFFFFF" d="M-4-5c78.667,0,157.334,0,236,0c0,79.333,0,158.667,0,238c-78.666,0-157.333,0-236,0
		C-4,153.667-4,74.333-4-5z M209.939,114.096c0.799-57.242-46.024-101.83-100.01-103.029C51.969,9.777,4.574,57.07,4.952,113.779
		C5.327,169.973,50.703,215.667,107.1,215.807C163.868,215.948,209.836,170.482,209.939,114.096z"/>
	<path fill="none" stroke="#EC671C" stroke-width="4" d="M207.157,114.163c-0.102,54.821-44.802,99.024-100.005,98.887
		c-54.844-0.137-98.971-44.562-99.334-99.192C7.45,58.723,53.54,12.745,109.904,13.997C162.4,15.162,207.935,58.512,207.157,114.163
		z M7.818,113.873c0.086,54.424,45.314,99.283,99.994,99.177c54.658-0.106,99.24-44.896,99.353-99.81
		c0.109-54.333-44.817-99.281-99.224-99.268C52.35,13.986,7.73,58.506,7.818,113.873z"/>
	<path fill="none" d="M7.818,113.873C7.73,58.506,52.35,13.986,107.939,13.973c54.406-0.014,99.334,44.936,99.225,99.269
		c-0.111,54.915-44.693,99.702-99.354,99.81C53.133,213.156,7.904,168.297,7.818,113.873z M134.626,130.479
		c1.876-15.264,1.502-30.287-2.458-45.11c-4.02-15.054-11.391-27.96-24.779-38.478c0.495,2.396,0.606,3.541,0.971,4.601
		c4.224,12.286,3.899,24.67-0.312,36.731c-2.219,6.354-5.757,12.312-9.248,18.117c-0.9,1.499-3.875,1.753-5.896,2.578
		c-0.5-2.094-1.506-4.218-1.383-6.273c0.187-3.125,1.557-6.184,1.709-9.305c0.293-5.99,0.086-12.007,0.086-18.013
		c-1.621,0.264-1.989,0.56-2.195,0.942c-5.727,10.658-10.96,21.617-17.266,31.92c-8.342,13.629-13.137,27.916-11.705,44.022
		c1.039,11.7,8.711,20.31,18.465,20.806c8.322,0.422,14.689-3.566,20.512-8.808c11.236-10.11,16.32-23.626,20.613-37.565
		c0.287-0.938,0.789-1.81,1.191-2.709c1.731,15.879-2.57,33.754-9.933,47.723c2.396-1.482,1.756-1.708,2.524-2.119
		c5.397-5.104,10.795-10.204,16.192-15.307c0.438,0.229,0.879,0.457,1.317,0.686c-4.303,8.311-8.605,16.62-12.896,24.902
		c28.005-14.543,35.39-62.031,21.947-86.271C142.605,107.102,142.26,119.551,134.626,130.479z"/>
	<g>
		<g>
			<path d="M134.626,130.479c7.634-10.928,7.979-23.377,7.464-36.932c13.441,24.24,6.057,71.729-21.947,86.271
				c4.289-8.282,8.592-16.592,12.896-24.902c-0.438-0.229-0.879-0.457-1.316-0.686c-5.397,5.103-10.797,10.203-16.193,15.307
				c-0.389-0.311-0.779-0.62-1.17-0.93c7.359-13.969,10.309-28.795,8.576-44.674c-0.402,0.899-0.904,1.771-1.191,2.709
				c-4.294,13.939-9.378,27.455-20.614,37.565c-5.821,5.239-12.188,9.229-20.512,8.808c-9.752-0.496-17.425-9.104-18.466-20.806
				c-1.43-16.104,3.363-30.394,11.705-44.022c6.306-10.304,11.541-21.262,17.267-31.92c0.206-0.384,1.464-1.645,2.88-3.103
				c0,6.006,0.371,14.284-0.771,20.172c-1.127,5.81-1.522,6.181-1.709,9.304c-0.123,2.058-1.02,4.691,1.384,6.274
				c2.43,1.25,4.995-1.079,5.896-2.578c3.491-5.806,7.029-11.763,9.248-18.116c4.213-12.062,4.536-24.447,0.312-36.732
				c-0.364-1.059-0.475-2.205-0.971-4.6c13.389,10.517,20.76,23.422,24.779,38.477C136.128,100.189,136.502,115.215,134.626,130.479
				z"/>
		</g>
		<g>
			<path fill="#FF8A35" d="M134.626,130.479c7.634-10.928,7.979-23.377,7.464-36.932c13.441,24.24,6.057,71.729-21.947,86.271
				c4.289-8.282,8.592-16.592,12.896-24.902c-0.438-0.229-0.879-0.457-1.316-0.686c-5.397,5.103-10.797,10.203-16.193,15.307
				c-0.389-0.311-0.779-0.62-1.17-0.93c7.359-13.969,10.309-28.795,8.576-44.674c-0.402,0.899-0.904,1.771-1.191,2.709
				c-4.294,13.939-9.378,27.455-20.614,37.565c-5.821,5.239-12.188,9.229-20.512,8.808c-9.752-0.496-17.425-9.104-18.466-20.806
				c-1.43-16.104,3.363-30.394,11.705-44.022c6.306-10.304,11.541-21.262,17.267-31.92c0.206-0.384,1.464-1.645,2.88-3.103
				c0,6.006,0.371,14.284-0.771,20.172c-1.127,5.81-1.522,6.181-1.709,9.304c-0.123,2.058-1.02,4.691,1.384,6.274
				c2.43,1.25,4.995-1.079,5.896-2.578c3.491-5.806,7.029-11.763,9.248-18.116c4.213-12.062,4.536-24.447,0.312-36.732
				c-0.364-1.059-0.475-2.205-0.971-4.6c13.389,10.517,20.76,23.422,24.779,38.477C136.128,100.189,136.502,115.215,134.626,130.479
				z"/>
		</g>
	</g>
</g>
</svg>
